<?xml version="1.0" encoding="UTF-8"?>
<svg id="Layer_2" data-name="Layer 2" xmlns="http://www.w3.org/2000/svg" viewBox="0 0 1080 1080">
  <defs>
    <style>
      .cls-1 {
        fill: #01c1a3;
      }

      .cls-2 {
        fill: #fcfdfd;
      }
    </style>
  </defs>
  <g id="Layer_1-2" data-name="Layer 1">
    <g>
      <path class="cls-1" d="M1080,0v1080H0V0h1080ZM548.44,888.05v-84.38c0-13.29-37.56-9.96-47.36-11.7-336.28-59.8-263.69-524.99,49.63-505.26,218.06,13.73,319.57,288.4,156.52,434.39-38.27-33.43-62.03-81-72.45-130.32-2.76-13.05-5.41-58.67-8.23-63.49-7.18-12.26-85.23-12.14-95.09-2.16-10.66,10.79-1.54,66.03,1.45,83.14,25.66,146.83,153.15,266.67,300.79,285.61,19.98,2.56,53.96,7.77,69.11-5.83v-84.38c0-14.02-38.58-9.5-48.01-11.05-17.94-2.94-35.61-7.99-53.22-12.2l37.12-53.52c179.54-297.57-127-654.14-449.2-512.48-325.05,142.92-251.81,639.29,98.29,679.43,11.05,1.27,56.6,7.22,60.65-5.81Z"/>
      <path class="cls-2" d="M548.44,888.05c-4.05,13.02-49.6,7.07-60.65,5.81-350.1-40.14-423.34-536.51-98.29-679.43,322.2-141.66,628.74,214.9,449.2,512.48l-37.12,53.52c17.61,4.21,35.28,9.26,53.22,12.2,9.44,1.54,48.01-2.98,48.01,11.05v84.38c-15.15,13.61-49.13,8.4-69.11,5.83-147.64-18.94-275.13-138.78-300.79-285.61-2.99-17.11-12.11-72.35-1.45-83.14,9.86-9.98,87.91-10.1,95.09,2.16,2.82,4.82,5.47,50.44,8.23,63.49,10.42,49.32,34.18,96.89,72.45,130.32,163.05-145.99,61.55-420.65-156.52-434.39-313.32-19.73-385.91,445.46-49.63,505.26,9.8,1.74,47.36-1.59,47.36,11.7v84.38Z"/>
    </g>
  </g>
</svg>